<svg xmlns="http://www.w3.org/2000/svg" width="64" height="64" viewBox="0 0 64 64">
  <rect width="64" height="64" rx="14" fill="#1F1B17"/>
  <rect x="4.5" y="4.5" width="55" height="55" rx="10.5" fill="none" stroke="#BFA77A" stroke-width="2"/>
  <path d="M51.118 48.356Q51.333 48.356 51.333 48.678Q51.333 49 51.118 49Q49.509 49 47.820 48.893Q46.131 48.785 44.576 48.785Q42.806 48.785 41.492 48.893Q40.178 49 38.569 49Q38.355 49 38.355 48.678Q38.355 48.356 38.569 48.356Q40.983 48.356 41.465 47.498Q41.948 46.640 40.661 44.120L36.585 35.861L23.607 35.861L21.033 41.653Q19.639 44.924 20.953 46.640Q22.267 48.356 25.431 48.356Q25.699 48.356 25.699 48.678Q25.699 49 25.431 49Q23.822 49 22.481 48.893Q21.140 48.785 19.103 48.785Q17.065 48.785 15.858 48.893Q14.651 49 12.882 49Q12.667 49 12.667 48.678Q12.667 48.356 12.882 48.356Q14.330 48.356 15.375 47.767Q16.421 47.177 17.440 45.595Q18.459 44.013 19.692 41.170L31.222 15.161Q31.330 15 31.705 15Q32.080 15 32.134 15.161L45.273 41.653Q46.506 44.227 47.472 45.702Q48.437 47.177 49.295 47.767Q50.153 48.356 51.118 48.356M24.197 34.521L35.942 34.521L29.774 21.972" fill="#D9C9A6"/>
</svg>
